<svg width="64" height="58" viewBox="0 0 64 58" fill="none" xmlns="http://www.w3.org/2000/svg">
<path d="M30.5176 40.8066C29.0728 40.8066 27.9018 39.6354 27.9018 38.1908C27.9018 36.7462 29.073 35.575 30.5176 35.575L41.8527 35.5752H47.0843V32.785V24.4141H41.8527H38.1535H25.286C23.8416 24.4141 22.6702 23.2429 22.6702 21.7983V8.93085V5.23159V0H2.6158C1.17135 0 0 1.17118 0 2.6158V54.9317C0 56.3763 1.17135 57.5475 2.6158 57.5475H44.4685C45.9133 57.5475 47.0843 56.3763 47.0843 54.9317V46.1545V40.8068H41.8527L30.5176 40.8066Z" fill="black"/>
<path d="M63.9864 37.9335C63.9826 37.8942 63.9752 37.8564 63.9697 37.8177C63.963 37.7718 63.9578 37.7259 63.9487 37.6806C63.9398 37.6363 63.928 37.5936 63.917 37.5503C63.9069 37.5109 63.8983 37.4713 63.8865 37.4323C63.8737 37.3901 63.8579 37.3491 63.843 37.3079C63.8289 37.2687 63.816 37.2291 63.8001 37.1904C63.7841 37.1519 63.7654 37.1151 63.7477 37.0777C63.729 37.0376 63.7112 36.9975 63.6903 36.9585C63.6711 36.9227 63.6493 36.8887 63.6284 36.8538C63.6054 36.8153 63.5836 36.7766 63.5586 36.7391C63.5332 36.7009 63.5046 36.665 63.4772 36.6284C63.4535 36.5966 63.4315 36.5642 63.4064 36.5335C63.3541 36.4698 63.299 36.409 63.2411 36.3506C63.2383 36.3478 63.2362 36.3448 63.2332 36.3418L56.6939 29.8022C55.6725 28.7808 54.0162 28.7808 52.9946 29.8022C51.9731 30.8236 51.9731 32.4799 52.9945 33.5014L55.0684 35.5758H51.6433H47.084V40.8073H49.3184H55.0686L52.9946 42.8813C51.9731 43.9029 51.9731 45.559 52.9946 46.5806C53.5052 47.0915 54.1749 47.3468 54.8442 47.3468C55.5138 47.3468 56.1831 47.0915 56.6939 46.5806L63.233 40.0413C63.2344 40.0399 63.2355 40.0383 63.2369 40.0373C63.2965 39.9774 63.3528 39.915 63.4064 39.8498C63.4318 39.8189 63.4538 39.7863 63.4777 39.7544C63.5049 39.718 63.5332 39.6822 63.5588 39.6442C63.5841 39.6065 63.6059 39.5673 63.6289 39.5287C63.6493 39.4942 63.6711 39.4604 63.6903 39.4248C63.7114 39.3856 63.7292 39.3449 63.7482 39.3048C63.7658 39.2677 63.7843 39.2311 63.8001 39.1927C63.8164 39.1538 63.8293 39.1141 63.8434 39.0745C63.8582 39.0337 63.8739 38.993 63.8865 38.951C63.8983 38.9118 63.9072 38.8718 63.9172 38.8319C63.9281 38.789 63.9402 38.7464 63.9489 38.7027C63.958 38.6572 63.9632 38.6113 63.9698 38.5653C63.9754 38.5267 63.9826 38.4889 63.9866 38.4496C63.9949 38.3651 63.9993 38.28 63.9993 38.195C63.9993 38.1938 63.9996 38.1926 63.9996 38.1916C63.9996 38.1902 63.9993 38.1886 63.9993 38.1872C63.9991 38.1023 63.9948 38.0177 63.9864 37.9335Z" fill="black"/>
<path d="M45.5527 19.1824L27.9023 1.53223V8.93074V19.1824H38.154H45.5527Z" fill="black"/>
</svg>
