<svg width="394" height="584" viewBox="0 0 394 584" fill="none" xmlns="http://www.w3.org/2000/svg">
<path d="M31.7969 361.49V306.48H70.7269V316.54H43.5068V328.5H70.1469V338.56H43.5068V361.49H31.7969V361.49Z" fill="white"/>
<path d="M113.858 361.49L110.398 352.01H85.8182L82.3583 361.49H69.4883L90.7682 306.48H105.448L126.648 361.49H113.858ZM98.1083 316.63L88.9583 341.87H107.188L98.1083 316.63Z" fill="white"/>
<path d="M133.818 344.831C137.698 348.871 143.718 352.251 151.298 352.251C157.728 352.251 160.868 349.201 160.868 346.061C160.868 341.941 156.088 340.531 149.738 339.051C140.748 336.991 129.198 334.511 129.198 322.221C129.198 313.071 137.118 305.641 150.068 305.641C158.808 305.641 166.068 308.281 171.508 313.311L164.998 321.891C160.548 317.771 154.608 315.871 149.248 315.871C143.968 315.871 141.168 318.181 141.168 321.481C141.168 325.191 145.788 326.351 152.138 327.831C161.208 329.891 172.758 332.611 172.758 344.821C172.758 354.881 165.588 362.471 150.738 362.471C140.178 362.471 132.598 358.921 127.398 353.731L133.818 344.831Z" fill="white"/>
<path d="M192.799 361.49V316.79H176.719V306.48H220.599V316.79H204.599V361.49H192.799Z" fill="white"/>
<path d="M228.098 361.49V306.48H267.028V316.54H239.808V328.5H266.448V338.56H239.808V351.341H267.028V361.48H228.098V361.49Z" fill="white"/>
<path d="M278.818 344.831C282.698 348.871 288.718 352.251 296.298 352.251C302.728 352.251 305.868 349.201 305.868 346.061C305.868 341.941 301.088 340.531 294.738 339.051C285.748 336.991 274.198 334.511 274.198 322.221C274.198 313.071 282.118 305.641 295.068 305.641C303.808 305.641 311.068 308.281 316.508 313.311L309.998 321.891C305.548 317.771 299.608 315.871 294.248 315.871C288.968 315.871 286.168 318.181 286.168 321.481C286.168 325.191 290.788 326.351 297.138 327.831C306.208 329.891 317.758 332.611 317.758 344.821C317.758 354.881 310.588 362.471 295.738 362.471C285.178 362.471 277.598 358.921 272.398 353.731L278.818 344.831Z" fill="white"/>
<path d="M337.799 361.49V316.79H321.719V306.48H365.599V316.79H349.599V361.49H337.799Z" fill="white"/>
<path d="M120.537 460.471V415.771H104.457V405.461H148.337V415.771H132.337V460.471H120.537Z" fill="white"/>
<path d="M155.848 460.471V405.461H167.558V460.471H155.848Z" fill="white"/>
<path d="M226.277 460.471V420.881L210.777 460.471H205.667L190.167 420.881V460.471H178.457V405.461H194.867L208.227 439.771L221.587 405.461H238.087V460.471H226.277V460.471Z" fill="white"/>
<path d="M248.957 460.471V405.461H287.887V415.521H260.667V427.481H287.307V437.541H260.667V450.321H287.887V460.461H248.957V460.471Z" fill="white"/>
<path d="M140.537 559.45L130.887 521.68L121.317 559.45H108.867L93.1172 504.44H106.227L115.877 544.19L126.347 504.44H135.497L145.887 544.19L155.457 504.44H168.657L152.987 559.45H140.537Z" fill="white"/>
<path d="M174.195 559.45V504.44H185.905V559.45H174.195Z" fill="white"/>
<path d="M234.727 559.45L208.497 522.5V559.45H196.797V504.44H208.837L234.317 540.07V504.44H246.027V559.45H234.727Z" fill="white"/>
<path d="M259.557 542.791C263.437 546.831 269.457 550.211 277.037 550.211C283.467 550.211 286.607 547.161 286.607 544.021C286.607 539.901 281.827 538.491 275.477 537.011C266.487 534.951 254.937 532.471 254.937 520.181C254.937 511.031 262.857 503.601 275.807 503.601C284.547 503.601 291.807 506.241 297.247 511.271L290.737 519.851C286.287 515.731 280.347 513.831 274.987 513.831C269.707 513.831 266.907 516.141 266.907 519.441C266.907 523.151 271.527 524.311 277.877 525.791C286.947 527.851 298.497 530.571 298.497 542.781C298.497 552.841 291.327 560.431 276.477 560.431C265.917 560.431 258.337 556.881 253.137 551.691L259.557 542.791Z" fill="white"/>
<path d="M394 584H0V0H394V584ZM4 580H390V4H4V580V580Z" fill="white"/>
<path opacity="0.5" d="M206.891 162.8L193.141 154.62L225.051 107.86C226.321 105.72 229.081 105.02 231.221 106.29C233.361 107.56 234.061 110.32 232.791 112.46L206.891 162.8Z" fill="white"/>
<path opacity="0.5" d="M208.79 167.51L198.32 155.41L243.33 121.08C245.21 119.45 248.05 119.66 249.68 121.54C251.31 123.42 251.1 126.26 249.22 127.89L208.79 167.51Z" fill="white"/>
<path d="M200.609 97C200.609 100.87 197.479 104 193.609 104C189.739 104 186.609 100.87 186.609 97C186.609 93.13 189.739 90 193.609 90C197.479 90 200.609 93.13 200.609 97ZM193.609 231C189.739 231 186.609 234.13 186.609 238C186.609 241.87 189.739 245 193.609 245C197.479 245 200.609 241.87 200.609 238C200.609 234.13 197.479 231 193.609 231ZM271.109 167.5C271.109 163.63 267.979 160.5 264.109 160.5C260.239 160.5 257.109 163.63 257.109 167.5C257.109 171.37 260.239 174.5 264.109 174.5C267.979 174.5 271.109 171.36 271.109 167.5ZM130.109 167.5C130.109 163.63 126.979 160.5 123.109 160.5C119.239 160.5 116.109 163.63 116.109 167.5C116.109 171.37 119.239 174.5 123.109 174.5C126.979 174.5 130.109 171.36 130.109 167.5ZM248.409 222.3C251.139 219.57 251.139 215.13 248.409 212.4C245.679 209.67 241.239 209.67 238.509 212.4C235.779 215.13 235.779 219.57 238.509 222.3C241.249 225.03 245.679 225.03 248.409 222.3ZM148.709 122.6C151.439 119.87 151.439 115.43 148.709 112.7C145.979 109.97 141.539 109.97 138.809 112.7C136.079 115.43 136.079 119.87 138.809 122.6C141.549 125.33 145.979 125.33 148.709 122.6ZM138.809 222.3C141.539 225.03 145.979 225.03 148.709 222.3C151.439 219.57 151.439 215.13 148.709 212.4C145.979 209.67 141.539 209.67 138.809 212.4C136.079 215.13 136.079 219.56 138.809 222.3ZM256.329 131.1C254.989 129 252.209 128.39 250.119 129.73L209.619 152.16C200.199 143.7 185.709 143.97 176.639 153.03C167.269 162.4 167.269 177.6 176.639 186.97C186.009 196.34 201.209 196.34 210.579 186.97C216.569 180.98 218.709 172.63 217.049 164.92L254.949 137.31C257.049 135.97 257.659 133.19 256.329 131.1ZM213.609 49.5C213.609 42 207.609 41 207.609 41H179.609C179.609 41 173.609 42 173.609 49.5C173.609 57 179.609 58 179.609 58H207.609C207.609 58 213.609 57 213.609 49.5ZM289.609 167C289.609 219.38 246.989 262 194.609 262C142.229 262 99.6094 219.38 99.6094 167C99.6094 118.34 136.389 78.11 183.609 72.64V63H204.609V72.53C223.069 74.47 239.959 81.73 253.739 92.73L260.709 85.76L275.559 100.61L268.619 107.55C281.739 123.83 289.609 144.51 289.609 167ZM279.609 167C279.609 120.13 241.479 82 194.609 82C147.739 82 109.609 120.13 109.609 167C109.609 213.87 147.739 252 194.609 252C241.479 252 279.609 213.87 279.609 167ZM291.469 97.42C296.769 92.12 293.239 87.17 293.239 87.17L273.439 67.37C273.439 67.37 268.489 63.83 263.189 69.14C257.889 74.44 261.419 79.39 261.419 79.39L281.219 99.19C281.219 99.19 286.169 102.72 291.469 97.42Z" fill="white"/>
</svg>
