<svg width="173" height="57" viewBox="0 0 173 57" fill="none" xmlns="http://www.w3.org/2000/svg">
<g clip-path="url(#clip0_30_40)">
<path d="M56.5496 1.37012H63.1596L72.2696 17.3701H66.6196L65.0396 14.5401H54.7596L53.2796 17.3701H47.5996L56.5496 1.37012ZM56.6396 11.0801H63.1396L59.8396 5.08012L56.6396 11.0801Z" fill="white"/>
<path d="M75.4297 1.37012H80.5097V13.2401H92.9097V17.3501H75.4297V1.37012Z" fill="white"/>
<path d="M96.6895 1.37012H101.759V13.2401H114.169V17.3501H96.6895V1.37012Z" fill="white"/>
<path d="M117.98 1.37012H123.06V17.3701H117.98V1.37012Z" fill="white"/>
<path d="M128.641 1.37012H147.581V5.08012H133.761V7.64012H146.121V10.9501H133.761V13.5101H147.921V17.3501H128.641V1.37012Z" fill="white"/>
<path d="M47.5801 20.46H52.5001L55.9901 32.08L60.1601 20.46H64.8301L69.0001 32.08L72.4901 20.46H77.4101L72.0801 36.27H66.3001L62.4801 25.83L58.6501 36.27H52.8701L47.5801 20.46Z" fill="white"/>
<path d="M79.8809 26.0103C79.8809 21.3803 82.5809 20.2803 87.1109 20.2803H95.1709C99.7009 20.2803 102.391 21.3703 102.391 26.0103V30.7303C102.391 35.3603 99.6909 36.4503 95.1709 36.4503H87.1109C82.5809 36.4503 79.8809 35.3603 79.8809 30.7303V26.0103ZM85.0509 29.2203C85.0509 31.5103 85.5509 32.3803 87.9309 32.3803H94.3609C96.7409 32.3803 97.2409 31.5103 97.2409 29.2203V27.5203C97.2409 25.5203 96.7409 24.3503 94.0909 24.3503H88.2009C85.5509 24.3503 85.0509 25.5503 85.0509 27.5203V29.2203Z" fill="white"/>
<path d="M106.76 20.46H121.96C125.83 20.46 126.87 22.32 126.87 25.16V26.16C126.87 28.27 126.37 29.52 124.06 30.04C125.55 30.3 126.8 30.93 126.8 33.53V36.21H121.8V34.31C121.8 32.65 121.3 32.1 119.74 32.1H111.83V36.21H106.83L106.76 20.46ZM111.76 28.23H120.07C121.43 28.23 121.93 27.71 121.93 26.57V26.04C121.93 24.64 121.2 24.38 119.62 24.38H111.76V28.23Z" fill="white"/>
<path d="M131.4 20.46H136.4V32.21H147.76V36.27H131.4V20.46Z" fill="white"/>
<path d="M151.01 20.46H166.18C171.18 20.46 172.98 22.06 172.98 25.96V30.73C172.98 34.64 171.21 36.23 166.18 36.23H151.01V20.46ZM156.01 32.21H164.94C167.09 32.21 167.94 31.62 167.94 29.37V27.23C167.94 24.98 167.1 24.39 164.94 24.39H156.01V32.21Z" fill="white"/>
<path d="M151.02 1.37012H166.19C171.19 1.37012 172.98 2.96012 172.98 6.87012V11.6701C172.98 15.5801 171.22 17.1801 166.19 17.1801H151.02V1.37012ZM156.02 13.1201H164.94C167.1 13.1201 167.94 12.5301 167.94 10.2801V8.14012C167.94 5.89012 167.11 5.30013 164.94 5.30013H156.02V13.1201Z" fill="white"/>
<path d="M43.3498 32.0598C43.3498 32.7965 43.2047 33.526 42.9228 34.2066C42.6408 34.8873 42.2276 35.5057 41.7067 36.0266C41.1857 36.5476 40.5673 36.9608 39.8867 37.2427C39.206 37.5247 38.4765 37.6698 37.7398 37.6698H5.61981C4.11664 37.6357 2.68684 37.0132 1.63778 35.9361C0.588726 34.859 0.00418155 33.4133 0.00980584 31.9098V5.61977C0.0150979 4.13007 0.610585 2.70318 1.66584 1.65167C2.7211 0.600164 4.1501 0.00975623 5.63981 0.00976563H37.7598C39.263 0.0438077 40.6928 0.666288 41.7418 1.74339C42.7909 2.8205 43.3754 4.26622 43.3698 5.76976L43.3498 32.0598Z" fill="white"/>
<path d="M6.18987 36.29H37.3799C38.6187 36.1984 39.779 35.6489 40.6349 34.7487C41.4908 33.8484 41.981 32.6618 42.0099 31.42V25.52L37.9299 34.21H31.0999L31.5099 19.5H31.4499L25.4499 34.21H18.8599L15.5399 14.46C9.80987 16.99 1.66988 23.19 1.35988 30.36C1.35988 30.36 0.779865 35.76 6.18987 36.29Z" fill="#B31B34"/>
<path d="M41.9994 15.83C38.7009 13.8655 35.0398 12.5872 31.2354 12.0717C27.431 11.5562 23.5617 11.8142 19.8594 12.83L22.6794 29.61L28.5094 15.87H35.7594L35.2894 29.29L41.9994 15.83Z" fill="#B31B34"/>
<path d="M42.0094 15.4597V5.72971C41.9549 4.5288 41.4263 3.39852 40.5396 2.5868C39.6529 1.77507 38.4804 1.34816 37.2794 1.39971H6.10938C4.90633 1.34806 3.73169 1.77435 2.8418 2.58556C1.9519 3.39677 1.419 4.52704 1.35938 5.72971V19.5297L11.5994 3.43972H18.2594L19.3994 9.99971C20.9188 9.7728 22.4531 9.65914 23.9894 9.6597C30.4525 9.65595 36.7519 11.6928 41.9894 15.4797" fill="black"/>
<path d="M14.2498 6.98047H14.1898L10.7598 12.6405C12.1145 11.9949 13.515 11.4501 14.9498 11.0105L14.2498 6.98047Z" fill="black"/>
<path d="M101.154 54H135.261V53.7032H101.154V54ZM101.154 43.3223H135.261V43H101.154V43.3223ZM125.592 48.5636H127.4L126.52 46.0193L125.592 48.5636ZM125.711 47.1473C125.868 46.7758 125.992 46.3897 126.083 45.9938C126.083 45.7309 125.861 45.7055 125.711 45.6631V45.5104C125.941 45.5104 126.155 45.5613 126.385 45.5613C126.615 45.5613 126.742 45.5613 126.916 45.5104L128.423 49.751C128.844 50.8959 128.899 51.1758 129.304 51.2606C129.685 51.1503 129.835 50.9892 131.017 49.505L131.866 48.4279L130.811 46.9946C130.065 46.0023 129.962 45.7818 129.431 45.6461V45.4934C129.74 45.4934 130.065 45.5443 130.375 45.5443C130.684 45.5443 130.962 45.5443 131.255 45.4934V45.6461C131.017 45.6461 130.811 45.7224 130.811 45.9175C130.934 46.207 131.1 46.4734 131.303 46.7062L132.215 47.9869L133.127 46.7826C133.428 46.3755 133.666 46.0956 133.666 45.9345C133.666 45.7733 133.428 45.68 133.262 45.68V45.5274C133.441 45.5541 133.621 45.5711 133.801 45.5783C134.031 45.5783 134.253 45.5783 134.475 45.5274C134.371 45.8213 134.211 46.0896 134.007 46.3161L132.421 48.3176L133.682 50.0139C134.475 50.9807 134.578 51.2606 135.031 51.32V51.4726C134.753 51.4726 134.475 51.4217 134.19 51.4217C133.904 51.4217 133.555 51.4217 133.23 51.4726V51.32C133.484 51.32 133.635 51.2182 133.635 51.0571C133.635 50.8959 133.325 50.5312 133.262 50.3955L132.072 48.7841L130.874 50.3786C130.723 50.5573 130.614 50.7726 130.557 51.0062C130.557 51.1334 130.668 51.2945 130.962 51.32V51.4726C130.676 51.4726 130.398 51.4217 130.113 51.4217C129.827 51.4217 129.597 51.4217 129.32 51.4641H129.272C129.026 51.4641 128.772 51.4217 128.519 51.4217C128.265 51.4217 127.892 51.4217 127.583 51.4726V51.32C127.876 51.2606 128.138 51.2521 128.138 50.9553C128.126 50.7495 128.077 50.548 127.995 50.3616L127.511 48.9453H125.504L125.06 50.1665C124.964 50.3897 124.9 50.627 124.87 50.8705C124.87 51.1334 125.1 51.286 125.441 51.32V51.4726C125.203 51.4726 124.965 51.4217 124.719 51.4217C124.473 51.4217 124.346 51.4217 124.148 51.4726V51.3878C124.411 50.5163 124.732 49.666 125.108 48.8435L125.711 47.1473ZM119.889 51.2945V51.4472C120.151 51.4472 120.428 51.3963 120.682 51.3963C120.936 51.3963 121.404 51.3963 121.761 51.4472V51.2945C121.134 51.2352 120.967 51.0571 120.967 50.4464V48.4788H121.935C123.18 48.4788 123.133 48.5806 123.228 49.0725H123.442C123.407 48.8224 123.386 48.5704 123.379 48.3176C123.381 48.0337 123.402 47.7503 123.442 47.4695H123.228C123.101 47.919 123.125 48.1311 121.935 48.1311H120.983V45.9345H121.951C123.482 45.9345 123.482 46.138 123.767 46.6723L123.966 46.6214C123.883 46.2196 123.833 45.8111 123.815 45.4002H123.68C123.461 45.5259 123.214 45.5846 122.966 45.5698H120.269H119.92V45.7224C120.404 45.7903 120.404 46.155 120.404 46.5705V50.4973C120.404 51.0995 120.404 51.2776 119.92 51.3454L119.889 51.2945ZM117.692 46.9183C117.692 46.155 117.033 45.8412 116.304 45.8412C115.959 45.8292 115.615 45.8692 115.28 45.9599V47.9954H115.986C117.232 47.9954 117.692 47.5628 117.692 46.9183V46.9183ZM117.16 48.1735C118.501 48.7671 118.366 50.5482 119.23 51.1673C119.326 51.2182 119.427 51.2553 119.532 51.2776V51.4302C119.405 51.4302 119.111 51.3878 118.992 51.3878C118.873 51.3878 118.683 51.3878 118.532 51.4302C118.431 51.337 118.359 51.2126 118.326 51.074L118.017 50.2259C117.335 48.3855 116.772 48.2922 115.978 48.2922H115.272V50.387C115.272 50.8196 115.272 51.1588 115.796 51.2352V51.3878C115.534 51.3878 115.265 51.3454 115.003 51.3454C114.741 51.3454 114.471 51.3454 114.21 51.3878V51.2352C114.693 51.1249 114.693 50.862 114.693 50.387V46.4603C114.693 45.8751 114.693 45.7224 114.194 45.6122V45.4595C114.337 45.4595 114.487 45.4595 114.63 45.4595H115.074C115.279 45.457 115.483 45.44 115.685 45.4086C115.891 45.4086 116.089 45.4086 116.296 45.4086C117.414 45.4086 118.342 45.7055 118.342 46.825C118.342 47.8088 117.485 48.0123 117.152 48.1056L117.16 48.1735ZM111.552 51.2267V51.3793C111.83 51.3793 112.108 51.3284 112.346 51.3284C112.584 51.3284 112.853 51.3284 113.139 51.3793V51.2267C112.869 51.1758 112.631 51.1419 112.631 50.3786V46.4518C112.631 45.6885 112.869 45.6037 113.139 45.6037V45.451C112.877 45.451 112.623 45.5019 112.346 45.5019C112.068 45.5019 111.798 45.5019 111.552 45.451V45.6037C111.83 45.6461 112.052 45.697 112.052 46.4518V50.3786C112.052 51.1503 111.822 51.2267 111.552 51.2267ZM107.206 48.4958H109.014L108.142 45.9514L107.206 48.4958ZM107.325 47.0794C107.482 46.7082 107.607 46.322 107.698 45.926C107.698 45.6631 107.476 45.6376 107.325 45.5952V45.4426C107.555 45.4426 107.769 45.4934 107.999 45.4934C108.229 45.4934 108.356 45.4934 108.53 45.4426L110.037 49.6831C110.466 50.8535 110.513 51.1164 110.942 51.1927V51.3454C110.68 51.3454 110.41 51.2945 110.149 51.2945C109.887 51.2945 109.514 51.2945 109.205 51.3454V51.1927C109.498 51.1334 109.76 51.1249 109.76 50.8281C109.748 50.6223 109.699 50.4208 109.617 50.2344L109.133 48.818H107.079L106.643 50.0393C106.547 50.2626 106.483 50.4998 106.452 50.7432C106.452 51.0062 106.682 51.1588 107.015 51.1927V51.3454C106.778 51.3454 106.54 51.2945 106.294 51.2945C106.048 51.2945 105.921 51.2945 105.731 51.3454V51.2606C105.993 50.389 106.314 49.5387 106.69 48.7163L107.325 47.0794ZM101.376 51.2267V51.3793C101.638 51.3793 101.915 51.3284 102.169 51.3284C102.423 51.3284 102.891 51.3284 103.248 51.3793V51.2267C102.613 51.1673 102.455 50.9892 102.455 50.3786V48.4109H103.422C104.668 48.4109 104.62 48.5127 104.715 49.0046H104.921C104.886 48.7547 104.865 48.5026 104.858 48.2498C104.861 47.9659 104.883 47.6826 104.921 47.4017H104.715C104.588 47.8512 104.612 48.0632 103.422 48.0632H102.455V45.8666H103.422C104.953 45.8666 104.953 46.0702 105.239 46.6045L105.437 46.5536C105.357 46.1516 105.309 45.743 105.294 45.3323H105.159C104.94 45.4577 104.694 45.5163 104.446 45.5019H101.733H101.384V45.6546C101.868 45.7224 101.868 46.0871 101.868 46.5027V50.4294C101.868 51.0316 101.868 51.2097 101.384 51.2776L101.376 51.2267ZM96.6962 48.9028L95.7206 46.0702L94.7212 48.9028H96.6962ZM96.1489 45.3408L98.4571 51.4133H97.5925L96.95 49.5898H94.4515L93.7932 51.4133H93L95.3082 45.3408H96.1489ZM153.258 46.9098C152.994 46.9052 152.733 46.971 152.499 47.1013C152.265 47.2316 152.065 47.4223 151.917 47.6561C151.823 47.4131 151.658 47.2092 151.446 47.0747C151.235 46.9402 150.988 46.8824 150.743 46.9098C150.473 46.8979 150.204 46.9603 149.963 47.0909C149.721 47.2216 149.515 47.4161 149.363 47.6561V47.6561V47.0116H148.745V51.4048H149.451V48.6654C149.471 48.3579 149.601 48.0705 149.813 47.8623C150.025 47.654 150.305 47.5408 150.593 47.5459C151.219 47.5459 151.386 47.953 151.386 48.5212V51.4048H152.092V48.6654C152.087 48.5102 152.112 48.3557 152.168 48.2121C152.223 48.0686 152.307 47.9394 152.413 47.8333C152.519 47.7272 152.645 47.6466 152.782 47.597C152.92 47.5474 153.066 47.53 153.21 47.5459C153.9 47.5459 154.003 47.9784 154.003 48.5212V51.4048H154.709V48.182C154.709 47.2745 154.138 46.9098 153.29 46.9098H153.258ZM147.158 49.2421C147.113 48.9724 146.997 48.722 146.823 48.5203C146.65 48.3187 146.426 48.1741 146.178 48.1034C145.931 48.0328 145.67 48.0391 145.425 48.1216C145.181 48.2041 144.963 48.3594 144.799 48.5692C144.634 48.779 144.528 49.0347 144.494 49.3064C144.461 49.578 144.5 49.8543 144.608 50.1029C144.715 50.3516 144.887 50.5622 145.103 50.7101C145.319 50.8581 145.569 50.9372 145.826 50.9383C146.022 50.9348 146.215 50.8863 146.393 50.796C146.57 50.7057 146.727 50.5758 146.854 50.415C146.98 50.2542 147.072 50.0663 147.125 49.8639C147.178 49.6616 147.189 49.4495 147.158 49.2421V49.2421ZM147.904 49.2421C147.888 49.6779 147.753 50.0992 147.515 50.4535C147.277 50.8078 146.947 51.0793 146.566 51.2343C146.184 51.3893 145.769 51.4209 145.371 51.3251C144.973 51.2293 144.61 51.0104 144.328 50.6957C144.045 50.381 143.856 49.9844 143.783 49.5553C143.71 49.1262 143.756 48.6836 143.917 48.2826C144.077 47.8817 144.345 47.5401 144.686 47.3005C145.026 47.0609 145.426 46.9339 145.834 46.9352C146.117 46.9207 146.399 46.9712 146.662 47.0833C146.926 47.1954 147.163 47.3665 147.36 47.5851C147.556 47.8037 147.706 48.0647 147.8 48.3505C147.894 48.6363 147.929 48.9404 147.904 49.2421ZM140.654 50.9383C139.234 50.9383 138.64 49.7764 138.64 48.394C138.64 47.0116 139.234 45.9345 140.638 45.9345C141.013 45.9049 141.385 46.0183 141.688 46.2543C141.992 46.4903 142.207 46.8338 142.296 47.2236H143.089C142.992 46.6278 142.688 46.0933 142.238 45.7269C141.788 45.3606 141.225 45.1893 140.662 45.2475C140.275 45.2361 139.89 45.3126 139.533 45.4721C139.176 45.6315 138.854 45.8703 138.589 46.1725C138.325 46.4747 138.123 46.8335 137.998 47.2252C137.872 47.617 137.826 48.0327 137.862 48.4449C137.862 50.2174 138.758 51.6083 140.591 51.6083C140.909 51.6336 141.229 51.5902 141.531 51.4806C141.834 51.371 142.112 51.1975 142.35 50.9704C142.589 50.7433 142.782 50.4672 142.918 50.1586C143.055 49.8501 143.132 49.5153 143.145 49.1742H142.352C142.352 49.4106 142.307 49.6446 142.221 49.8621C142.134 50.0797 142.008 50.2763 141.848 50.4403C141.689 50.6042 141.501 50.7321 141.294 50.8162C141.087 50.9003 140.867 50.939 140.646 50.9298L140.654 50.9383ZM159.04 49.2336C159.062 49.0322 159.045 48.8281 158.989 48.6344C158.932 48.4408 158.839 48.2618 158.714 48.1092C158.589 47.9565 158.436 47.8336 158.264 47.7482C158.092 47.6629 157.905 47.6171 157.715 47.6137C156.772 47.6137 156.407 48.4618 156.407 49.3099C156.407 50.1581 156.787 51.0062 157.755 51.0062C158.723 51.0062 159.04 50.1581 159.04 49.3099V49.2336ZM159.786 49.3608C159.816 49.6522 159.788 49.9472 159.704 50.2261C159.619 50.505 159.48 50.7614 159.295 50.9782C159.11 51.1949 158.884 51.367 158.633 51.483C158.381 51.599 158.109 51.6562 157.834 51.6507C157.57 51.6617 157.307 51.6052 157.067 51.4857C156.827 51.3662 156.617 51.1873 156.454 50.9638V53.2367H155.756V47.1557H156.454V47.7494C156.6 47.5107 156.804 47.3195 157.045 47.1969C157.286 47.0742 157.553 47.0247 157.819 47.054C158.095 47.0511 158.369 47.1108 158.622 47.2291C158.875 47.3473 159.102 47.5215 159.288 47.7401C159.473 47.9588 159.614 48.217 159.7 48.4977C159.785 48.7785 159.815 49.0755 159.786 49.3693V49.3608ZM167.067 47.054C166.789 47.036 166.512 47.1011 166.267 47.2419C166.022 47.3827 165.818 47.5937 165.679 47.8512V47.8512V47.1557H165.021V51.549H165.727V49.064C165.71 48.8813 165.731 48.6969 165.788 48.5238C165.845 48.3507 165.937 48.1931 166.057 48.0621C166.177 47.9311 166.323 47.8299 166.484 47.7656C166.645 47.7013 166.817 47.6755 166.988 47.6901C167.098 47.6782 167.21 47.6913 167.316 47.7285C167.421 47.7658 167.518 47.8264 167.601 47.9064C167.683 47.9863 167.748 48.0839 167.793 48.1928C167.838 48.3016 167.861 48.4193 167.86 48.5382V51.515H168.574V48.623C168.574 47.6816 168.225 47.0116 167.107 47.0116L167.067 47.054ZM163.252 49.2421C162.845 49.4193 162.413 49.5198 161.975 49.5389C161.507 49.6237 161.11 49.7934 161.11 50.3277C161.11 50.862 161.507 50.9722 161.903 50.9722C162.831 50.9722 163.212 50.3786 163.212 49.9799L163.252 49.2421ZM164.18 50.9383C164.253 50.9373 164.325 50.923 164.394 50.8959V51.4557C164.238 51.544 164.063 51.5851 163.886 51.5744C163.522 51.5744 163.292 51.3709 163.292 50.8959C163.102 51.1198 162.869 51.2965 162.608 51.4137C162.348 51.5309 162.067 51.5858 161.784 51.5744C160.991 51.5744 160.373 51.2182 160.373 50.3446C160.373 49.4711 161.094 49.1403 161.816 48.9961C162.538 48.852 163.26 48.8944 163.26 48.3516C163.26 47.8088 162.752 47.6222 162.308 47.6222C161.713 47.6222 161.277 47.8088 161.237 48.4703H160.539C160.579 47.3847 161.396 47.0031 162.348 47.0031C163.141 47.0031 163.934 47.1812 163.934 48.2159V50.4803C163.934 50.8196 163.934 50.9722 164.156 50.9722L164.18 50.9383ZM173 47.1133L171.136 52.0069C170.811 52.855 170.525 53.1773 169.891 53.1773C169.727 53.1812 169.563 53.1554 169.407 53.101V52.4395C169.539 52.4939 169.678 52.5281 169.819 52.5412C169.942 52.5448 170.063 52.5086 170.166 52.4375C170.27 52.3664 170.351 52.2636 170.398 52.1426L170.684 51.3963L168.987 47.0285H169.78L171.033 50.6245L172.231 47.0285L173 47.1133Z" fill="white"/>
</g>
<defs>
<clipPath id="clip0_30_40">
<rect width="172.98" height="56.08" fill="white"/>
</clipPath>
</defs>
</svg>
