<svg width="342" height="119" viewBox="0 0 342 119" fill="none" xmlns="http://www.w3.org/2000/svg">
<path d="M341.49 100.57C341.49 110.27 333.55 118.21 323.85 118.21H17.64C7.94001 118.21 0 110.27 0 100.57V17.64C0 7.93998 7.94001 0 17.64 0H323.85C333.55 0 341.49 7.93998 341.49 17.64V100.57V100.57ZM109.85 67.1C115.46 67.1 119.95 65.63 123.3 62.68C126.66 59.73 128.33 55.87 128.33 51.07C128.33 46 126.87 42.2 123.94 39.67C121.02 37.14 116.63 35.88 110.78 35.88H94.4V82.31H104.86V67.09H109.85V67.1ZM108.98 43.92C111.76 43.92 113.85 44.55 115.24 45.8C116.63 47.05 117.33 48.94 117.33 51.47C117.33 54.04 116.63 55.97 115.24 57.25C113.85 58.53 111.76 59.18 108.98 59.18H104.87V43.93H108.98V43.92ZM162.78 73.84H145.59V35.9H135.13V82.33H162.78V73.84V73.84ZM176.83 82.32L179.94 72.64H196.78L199.92 82.32H211.32L194.81 35.89H182.41L165.51 82.32H176.83ZM187.39 48.23C187.58 47.65 187.74 47.12 187.86 46.64C187.98 46.17 188.09 45.6 188.2 44.96H188.46C188.55 45.67 188.65 46.26 188.77 46.71C188.89 47.16 189.05 47.71 189.24 48.36L194.36 64.48H182.22L187.39 48.23ZM236.02 35.89L228.41 53.34C228.22 53.79 228.03 54.32 227.86 54.93C227.69 55.53 227.54 56.23 227.41 57H227.28C227 55.9 226.77 55.04 226.58 54.41C226.4 53.78 226.27 53.39 226.21 53.21L218.73 35.89H206.78L221.51 66V82.32H231.97V65.81L247.09 35.9H236.02V35.89Z" fill="white"/>
</svg>
