<svg width="1142" height="342" viewBox="0 0 1142 342" fill="none" xmlns="http://www.w3.org/2000/svg">
<path d="M50.0397 291.56L45.5897 274.16L41.1797 291.56H35.4397L28.1797 266.22H34.2197L38.6697 284.53L43.4997 266.22H47.7197L52.5097 284.53L56.9197 266.22H62.9997L55.7797 291.56H50.0397Z" fill="white"/>
<path d="M62.7402 282.36C62.7402 277.15 66.3902 272.75 72.4302 272.75C78.5102 272.75 82.1602 277.16 82.1602 282.36C82.1602 287.6 78.5102 292.01 72.4302 292.01C66.3802 292.01 62.7402 287.6 62.7402 282.36ZM77.1402 282.36C77.1402 279.51 75.4302 277.04 72.4302 277.04C69.4302 277.04 67.7603 279.51 67.7603 282.36C67.7603 285.25 69.4302 287.72 72.4302 287.72C75.4302 287.72 77.1402 285.25 77.1402 282.36Z" fill="white"/>
<path d="M85.7188 291.56V273.21H90.5487V275.72C91.8387 274.09 94.1187 272.79 96.3987 272.79V277.5C96.0587 277.42 95.5988 277.39 95.0688 277.39C93.4688 277.39 91.3487 278.26 90.5487 279.44V291.56H85.7188Z" fill="white"/>
<path d="M112.02 291.56V289.24C110.58 291.03 108.56 292.01 106.36 292.01C101.72 292.01 98.2305 288.51 98.2305 282.4C98.2305 276.4 101.69 272.75 106.36 272.75C108.53 272.75 110.58 273.7 112.02 275.56V266.21H116.88V291.55H112.02V291.56ZM112.02 279.13C111.18 277.91 109.47 277.04 107.84 277.04C105.1 277.04 103.2 279.21 103.2 282.4C103.2 285.55 105.1 287.72 107.84 287.72C109.47 287.72 111.18 286.85 112.02 285.63V279.13Z" fill="white"/>
<path d="M122.17 285.78C123.5 287.03 126.24 288.29 128.51 288.29C130.6 288.29 131.59 287.57 131.59 286.43C131.59 285.14 129.99 284.68 127.9 284.26C124.75 283.65 120.68 282.89 120.68 278.52C120.68 275.44 123.38 272.74 128.2 272.74C131.32 272.74 133.78 273.8 135.57 275.25L133.67 278.56C132.57 277.38 130.48 276.43 128.24 276.43C126.49 276.43 125.35 277.08 125.35 278.14C125.35 279.28 126.79 279.7 128.85 280.12C132 280.73 136.22 281.56 136.22 286.12C136.22 289.5 133.37 292.01 128.28 292.01C125.09 292.01 122.01 290.95 120.07 289.16L122.17 285.78Z" fill="white"/>
<path d="M148.119 272.75C153.589 272.75 157.309 276.85 157.309 282.86V283.92H143.669C143.969 286.24 145.839 288.17 148.949 288.17C150.659 288.17 152.669 287.49 153.849 286.35L155.979 289.47C154.119 291.18 151.269 292.02 148.419 292.02C142.829 292.02 138.619 288.26 138.619 282.37C138.619 277.04 142.529 272.75 148.119 272.75ZM143.599 280.65H152.639C152.529 278.9 151.309 276.58 148.119 276.58C145.119 276.59 143.819 278.83 143.599 280.65Z" fill="white"/>
<path d="M171.831 291.56V289.66C170.581 291.14 168.411 292.02 166.021 292.02C163.091 292.02 159.641 290.04 159.641 285.94C159.641 281.65 163.101 280.09 166.021 280.09C168.451 280.09 170.621 280.85 171.831 282.33V279.78C171.831 277.92 170.231 276.7 167.801 276.7C165.821 276.7 164.001 277.42 162.441 278.87L160.621 275.64C162.861 273.66 165.751 272.75 168.641 272.75C172.821 272.75 176.661 274.42 176.661 279.7V291.55H171.831V291.56ZM171.831 284.87C171.031 283.81 169.511 283.27 167.951 283.27C166.051 283.27 164.491 284.3 164.491 286.04C164.491 287.75 166.051 288.74 167.951 288.74C169.511 288.74 171.031 288.21 171.831 287.14V284.87Z" fill="white"/>
<path d="M181.439 291.56V273.21H186.269V275.72C187.559 274.09 189.839 272.79 192.119 272.79V277.5C191.779 277.42 191.319 277.39 190.789 277.39C189.189 277.39 187.069 278.26 186.269 279.44V291.56H181.439Z" fill="white"/>
<path d="M203.669 272.75C207.429 272.75 209.709 274.38 210.929 276.09L207.779 279.02C206.909 277.77 205.579 277.04 203.899 277.04C200.969 277.04 198.919 279.17 198.919 282.36C198.919 285.55 200.969 287.72 203.899 287.72C205.569 287.72 206.899 286.96 207.779 285.74L210.929 288.67C209.709 290.38 207.429 292.01 203.669 292.01C198.009 292.01 193.939 288.02 193.939 282.36C193.949 276.74 198.009 272.75 203.669 272.75Z" fill="white"/>
<path d="M226.51 291.56V280.39C226.51 277.84 225.18 277.05 223.09 277.05C221.23 277.05 219.75 278.11 218.91 279.22V291.57H214.08V266.21H218.91V275.59C220.09 274.18 222.37 272.74 225.37 272.74C229.4 272.74 231.34 274.94 231.34 278.52V291.55H226.51V291.56Z" fill="white"/>
<path d="M30.959 310.75H46.689V313.41H33.949V321.15H46.439V323.81H33.949V334.75H30.959V310.75Z" fill="white"/>
<path d="M50.1895 312.62C50.1895 311.61 51.0194 310.82 51.9894 310.82C52.9994 310.82 53.8294 311.61 53.8294 312.62C53.8294 313.63 52.9994 314.46 51.9894 314.46C51.0094 314.45 50.1895 313.63 50.1895 312.62ZM50.6494 317.37H53.3495V334.76H50.6494V317.37Z" fill="white"/>
<path d="M70.49 323.38C70.49 320.32 68.94 319.35 66.6 319.35C64.48 319.35 62.46 320.65 61.45 322.05V334.76H58.75V317.37H61.45V319.89C62.67 318.45 65.05 316.94 67.64 316.94C71.28 316.94 73.18 318.77 73.18 322.56V334.76H70.48V323.38H70.49Z" fill="white"/>
<path d="M91.1901 332.16C89.8901 333.92 87.7701 335.18 85.3201 335.18C80.7801 335.18 77.5801 331.72 77.5801 326.07C77.5801 320.53 80.7501 316.93 85.3201 316.93C87.6601 316.93 89.7801 318.08 91.1901 319.99V310.74H93.8901V334.75H91.1901V332.16ZM91.1901 322.16C90.2201 320.65 88.1301 319.35 85.9701 319.35C82.4801 319.35 80.3901 322.23 80.3901 326.08C80.3901 329.93 82.4801 332.78 85.9701 332.78C88.1301 332.78 90.2201 331.56 91.1901 330.04V322.16Z" fill="white"/>
<path d="M109.12 331.12V319.75H106.24V317.37H109.12V312.62H111.82V317.37H115.35V319.75H111.82V330.55C111.82 331.85 112.4 332.78 113.58 332.78C114.34 332.78 115.06 332.46 115.42 332.06L116.21 334.08C115.53 334.73 114.55 335.2 112.97 335.2C110.41 335.19 109.12 333.71 109.12 331.12Z" fill="white"/>
<path d="M130.93 323.31C130.93 320.25 129.35 319.35 127.01 319.35C124.92 319.35 122.91 320.65 121.86 322.05V334.76H119.16V310.75H121.86V319.89C123.08 318.45 125.46 316.94 128.09 316.94C131.73 316.94 133.63 318.7 133.63 322.48V334.75H130.93V323.31Z" fill="white"/>
<path d="M146.589 316.94C151.849 316.94 154.939 321.04 154.939 326.26V326.94H140.869C141.089 330.22 143.389 332.95 147.129 332.95C149.109 332.95 151.129 332.16 152.489 330.75L153.789 332.51C152.059 334.24 149.719 335.17 146.879 335.17C141.729 335.17 138.029 331.46 138.029 326.03C138.019 321.01 141.619 316.94 146.589 316.94ZM140.869 324.97H152.279C152.239 322.38 150.519 319.18 146.559 319.18C142.849 319.17 141.009 322.3 140.869 324.97Z" fill="white"/>
<path d="M179.1 320.79L174.56 334.76H171.86L166.32 317.37H169.13L173.38 331.23L177.95 317.37H180.25L184.82 331.23L189.07 317.37H191.88L186.34 334.76H183.64L179.1 320.79Z" fill="white"/>
<path d="M194 326.05C194 321.01 197.31 316.94 202.6 316.94C207.89 316.94 211.2 321.01 211.2 326.05C211.2 331.09 207.89 335.19 202.6 335.19C197.32 335.19 194 331.08 194 326.05ZM208.37 326.05C208.37 322.52 206.32 319.35 202.61 319.35C198.9 319.35 196.81 322.52 196.81 326.05C196.81 329.61 198.9 332.78 202.61 332.78C206.32 332.78 208.37 329.61 208.37 326.05Z" fill="white"/>
<path d="M215.6 317.37H218.3V320.18C219.7 318.34 221.72 317.01 224.1 317.01V319.78C223.78 319.71 223.45 319.67 223.02 319.67C221.36 319.67 219.1 321.04 218.3 322.44V334.75H215.6V317.37V317.37Z" fill="white"/>
<path d="M240.079 332.16C238.779 333.92 236.659 335.18 234.209 335.18C229.669 335.18 226.469 331.72 226.469 326.07C226.469 320.53 229.639 316.93 234.209 316.93C236.549 316.93 238.669 318.08 240.079 319.99V310.74H242.779V334.75H240.079V332.16ZM240.079 322.16C239.109 320.65 237.019 319.35 234.859 319.35C231.369 319.35 229.279 322.23 229.279 326.08C229.279 329.93 231.369 332.78 234.859 332.78C237.019 332.78 239.109 331.56 240.079 330.04V322.16Z" fill="white"/>
<path d="M248.07 330.51C249.22 331.84 251.42 332.99 253.79 332.99C256.45 332.99 257.89 331.8 257.89 330.11C257.89 328.2 255.77 327.59 253.43 327.01C250.48 326.33 247.13 325.53 247.13 321.93C247.13 319.23 249.47 316.93 253.61 316.93C256.56 316.93 258.65 318.05 260.05 319.45L258.79 321.32C257.75 320.06 255.84 319.12 253.61 319.12C251.23 319.12 249.76 320.2 249.76 321.75C249.76 323.44 251.74 323.98 254.01 324.52C257.03 325.2 260.53 326.07 260.53 329.92C260.53 332.84 258.19 335.17 253.69 335.17C250.85 335.17 248.43 334.31 246.67 332.43L248.07 330.51Z" fill="white"/>
<path d="M273.74 312.62C273.74 311.61 274.57 310.82 275.54 310.82C276.55 310.82 277.38 311.61 277.38 312.62C277.38 313.63 276.55 314.46 275.54 314.46C274.57 314.45 273.74 313.63 273.74 312.62ZM274.21 317.37H276.91V334.76H274.21V317.37Z" fill="white"/>
<path d="M294.039 323.38C294.039 320.32 292.489 319.35 290.149 319.35C288.029 319.35 286.009 320.65 284.999 322.05V334.76H282.299V317.37H284.999V319.89C286.219 318.45 288.599 316.94 291.189 316.94C294.829 316.94 296.729 318.77 296.729 322.56V334.76H294.029V323.38H294.039Z" fill="white"/>
<path d="M311.97 331.12V319.75H309.09V317.37H311.97V312.62H314.67V317.37H318.2V319.75H314.67V330.55C314.67 331.85 315.25 332.78 316.43 332.78C317.19 332.78 317.91 332.46 318.27 332.06L319.06 334.08C318.38 334.73 317.4 335.2 315.82 335.2C313.27 335.19 311.97 333.71 311.97 331.12Z" fill="white"/>
<path d="M333.789 323.31C333.789 320.25 332.21 319.35 329.87 319.35C327.78 319.35 325.769 320.65 324.719 322.05V334.76H322.02V310.75H324.719V319.89C325.939 318.45 328.32 316.94 330.95 316.94C334.59 316.94 336.49 318.7 336.49 322.48V334.75H333.789V323.31Z" fill="white"/>
<path d="M349.451 316.94C354.711 316.94 357.801 321.04 357.801 326.26V326.94H343.731C343.951 330.22 346.251 332.95 349.991 332.95C351.971 332.95 353.991 332.16 355.351 330.75L356.651 332.51C354.921 334.24 352.581 335.17 349.741 335.17C344.591 335.17 340.891 331.46 340.891 326.03C340.881 321.01 344.481 316.94 349.451 316.94ZM343.721 324.97H355.131C355.091 322.38 353.371 319.18 349.411 319.18C345.701 319.17 343.871 322.3 343.721 324.97Z" fill="white"/>
<path d="M384.009 341.38V332.13C382.609 334.07 380.519 335.19 378.179 335.19C373.609 335.19 370.439 331.66 370.439 326.05C370.439 320.4 373.609 316.94 378.179 316.94C380.629 316.94 382.749 318.2 384.009 319.96V317.37H386.709V341.38H384.009V341.38ZM384.009 322.12C383.069 320.61 380.989 319.35 378.829 319.35C375.339 319.35 373.249 322.19 373.249 326.05C373.249 329.91 375.339 332.78 378.829 332.78C380.989 332.78 383.079 331.48 384.009 329.97V322.12Z" fill="white"/>
<path d="M403.839 332.31C402.509 333.82 400.239 335.19 397.649 335.19C394.009 335.19 392.109 333.43 392.109 329.65V317.38H394.809V328.83C394.809 331.89 396.359 332.79 398.699 332.79C400.819 332.79 402.839 331.57 403.849 330.16V317.38H406.549V334.77H403.849V332.31H403.839Z" fill="white"/>
<path d="M411.48 312.62C411.48 311.61 412.31 310.82 413.28 310.82C414.29 310.82 415.12 311.61 415.12 312.62C415.12 313.63 414.29 314.46 413.28 314.46C412.3 314.45 411.48 313.63 411.48 312.62ZM411.94 317.37H414.641V334.76H411.94V317.37Z" fill="white"/>
<path d="M427.709 316.94C430.879 316.94 432.749 318.24 434.079 319.96L432.279 321.62C431.129 320.04 429.649 319.35 427.849 319.35C424.139 319.35 421.839 322.19 421.839 326.05C421.839 329.91 424.139 332.78 427.849 332.78C429.649 332.78 431.129 332.06 432.279 330.51L434.079 332.17C432.749 333.9 430.879 335.19 427.709 335.19C422.529 335.19 419.039 331.23 419.039 326.05C419.039 320.9 422.529 316.94 427.709 316.94Z" fill="white"/>
<path d="M443.439 326.95L440.559 329.79V334.76H437.859V310.75H440.559V326.62L449.699 317.37H453.119L445.419 325.25L453.159 334.75H449.699L443.439 326.95Z" fill="white"/>
<path d="M463.099 316.94C468.359 316.94 471.449 321.04 471.449 326.26V326.94H457.379C457.599 330.22 459.899 332.95 463.639 332.95C465.619 332.95 467.639 332.16 468.999 330.75L470.299 332.51C468.569 334.24 466.229 335.17 463.389 335.17C458.239 335.17 454.539 331.46 454.539 326.03C454.529 321.01 458.129 316.94 463.099 316.94ZM457.379 324.97H468.789C468.749 322.38 467.029 319.18 463.069 319.18C459.349 319.17 457.519 322.3 457.379 324.97Z" fill="white"/>
<path d="M475.701 330.51C476.851 331.84 479.051 332.99 481.421 332.99C484.081 332.99 485.521 331.8 485.521 330.11C485.521 328.2 483.401 327.59 481.061 327.01C478.111 326.33 474.761 325.53 474.761 321.93C474.761 319.23 477.101 316.93 481.241 316.93C484.191 316.93 486.281 318.05 487.681 319.45L486.421 321.32C485.381 320.06 483.471 319.12 481.241 319.12C478.861 319.12 477.391 320.2 477.391 321.75C477.391 323.44 479.371 323.98 481.641 324.52C484.661 325.2 488.161 326.07 488.161 329.92C488.161 332.84 485.821 335.17 481.321 335.17C478.481 335.17 476.061 334.31 474.301 332.43L475.701 330.51Z" fill="white"/>
<path d="M493.091 331.12V319.75H490.211V317.37H493.091V312.62H495.791V317.37H499.321V319.75H495.791V330.55C495.791 331.85 496.371 332.78 497.551 332.78C498.311 332.78 499.031 332.46 499.391 332.06L500.181 334.08C499.501 334.73 498.521 335.2 496.941 335.2C494.381 335.19 493.091 333.71 493.091 331.12Z" fill="white"/>
<path d="M512.958 331.12V319.75H510.078V317.37H512.958V312.62H515.658V317.37H519.188V319.75H515.658V330.55C515.658 331.85 516.238 332.78 517.418 332.78C518.178 332.78 518.898 332.46 519.258 332.06L520.048 334.08C519.368 334.73 518.388 335.2 516.808 335.2C514.248 335.19 512.958 333.71 512.958 331.12Z" fill="white"/>
<path d="M522.531 312.62C522.531 311.61 523.361 310.82 524.331 310.82C525.341 310.82 526.171 311.61 526.171 312.62C526.171 313.63 525.341 314.46 524.331 314.46C523.361 314.45 522.531 313.63 522.531 312.62ZM523.001 317.37H525.701V334.76H523.001V317.37Z" fill="white"/>
<path d="M552.089 322.95C552.089 320.75 551.119 319.35 548.889 319.35C547.089 319.35 545.179 320.65 544.279 322.01V334.75H541.579V322.94C541.579 320.74 540.639 319.34 538.379 319.34C536.619 319.34 534.739 320.64 533.809 322.04V334.75H531.109V317.36H533.809V319.88C534.529 318.76 536.869 316.93 539.429 316.93C542.089 316.93 543.609 318.37 544.109 320.17C545.079 318.59 547.419 316.93 549.939 316.93C553.109 316.93 554.799 318.69 554.799 322.18V334.74H552.099V322.95H552.089Z" fill="white"/>
<path d="M567.751 316.94C573.011 316.94 576.101 321.04 576.101 326.26V326.94H562.031C562.251 330.22 564.551 332.95 568.291 332.95C570.271 332.95 572.291 332.16 573.651 330.75L574.951 332.51C573.221 334.24 570.881 335.17 568.041 335.17C562.891 335.17 559.191 331.46 559.191 326.03C559.181 321.01 562.781 316.94 567.751 316.94ZM562.031 324.97H573.441C573.401 322.38 571.681 319.18 567.721 319.18C564.001 319.17 562.171 322.3 562.031 324.97Z" fill="white"/>
<path d="M590.278 331.12V319.75H587.398V317.37H590.278V312.62H592.978V317.37H596.508V319.75H592.978V330.55C592.978 331.85 593.558 332.78 594.738 332.78C595.498 332.78 596.218 332.46 596.578 332.06L597.368 334.08C596.688 334.73 595.708 335.2 594.128 335.2C591.578 335.19 590.278 333.71 590.278 331.12Z" fill="white"/>
<path d="M599.32 326.05C599.32 321.01 602.63 316.94 607.92 316.94C613.21 316.94 616.52 321.01 616.52 326.05C616.52 331.09 613.21 335.19 607.92 335.19C602.63 335.19 599.32 331.08 599.32 326.05ZM613.68 326.05C613.68 322.52 611.63 319.35 607.92 319.35C604.21 319.35 602.12 322.52 602.12 326.05C602.12 329.61 604.21 332.78 607.92 332.78C611.63 332.78 613.68 329.61 613.68 326.05Z" fill="white"/>
<path d="M635.791 326.95L632.911 329.79V334.76H630.211V310.75H632.911V326.62L642.051 317.37H645.471L637.771 325.25L645.511 334.75H642.051L635.791 326.95Z" fill="white"/>
<path d="M660.451 323.38C660.451 320.32 658.901 319.35 656.561 319.35C654.441 319.35 652.421 320.65 651.411 322.05V334.76H648.711V317.37H651.411V319.89C652.631 318.45 655.011 316.94 657.601 316.94C661.241 316.94 663.141 318.77 663.141 322.56V334.76H660.441V323.38H660.451Z" fill="white"/>
<path d="M667.539 326.05C667.539 321.01 670.849 316.94 676.139 316.94C681.429 316.94 684.739 321.01 684.739 326.05C684.739 331.09 681.429 335.19 676.139 335.19C670.849 335.19 667.539 331.08 667.539 326.05ZM681.899 326.05C681.899 322.52 679.849 319.35 676.139 319.35C672.429 319.35 670.339 322.52 670.339 326.05C670.339 329.61 672.429 332.78 676.139 332.78C679.849 332.78 681.899 329.61 681.899 326.05Z" fill="white"/>
<path d="M696.811 316.94C699.981 316.94 701.851 318.24 703.181 319.96L701.381 321.62C700.231 320.04 698.751 319.35 696.951 319.35C693.241 319.35 690.941 322.19 690.941 326.05C690.941 329.91 693.241 332.78 696.951 332.78C698.751 332.78 700.231 332.06 701.381 330.51L703.181 332.17C701.851 333.9 699.981 335.19 696.811 335.19C691.631 335.19 688.141 331.23 688.141 326.05C688.131 320.9 691.621 316.94 696.811 316.94Z" fill="white"/>
<path d="M712.541 326.95L709.661 329.79V334.76H706.961V310.75H709.661V326.62L718.801 317.37H722.221L714.521 325.25L722.261 334.75H718.801L712.541 326.95Z" fill="white"/>
<path d="M735.29 331.12V319.75H732.41V317.37H735.29V312.62H737.99V317.37H741.52V319.75H737.99V330.55C737.99 331.85 738.57 332.78 739.75 332.78C740.51 332.78 741.23 332.46 741.59 332.06L742.38 334.08C741.7 334.73 740.72 335.2 739.14 335.2C736.59 335.19 735.29 333.71 735.29 331.12Z" fill="white"/>
<path d="M757.098 323.31C757.098 320.25 755.518 319.35 753.178 319.35C751.088 319.35 749.078 320.65 748.028 322.05V334.76H745.328V310.75H748.028V319.89C749.248 318.45 751.628 316.94 754.258 316.94C757.898 316.94 759.798 318.7 759.798 322.48V334.75H757.098V323.31V323.31Z" fill="white"/>
<path d="M772.759 316.94C778.019 316.94 781.109 321.04 781.109 326.26V326.94H767.039C767.259 330.22 769.559 332.95 773.299 332.95C775.279 332.95 777.299 332.16 778.659 330.75L779.959 332.51C778.229 334.24 775.889 335.17 773.049 335.17C767.899 335.17 764.199 331.46 764.199 326.03C764.199 321.01 767.799 316.94 772.759 316.94ZM767.039 324.97H778.449C778.409 322.38 776.689 319.18 772.729 319.18C769.019 319.17 767.189 322.3 767.039 324.97Z" fill="white"/>
<path d="M794.758 310.75H797.458V334.76H794.758V310.75Z" fill="white"/>
<path d="M810.419 316.94C815.679 316.94 818.769 321.04 818.769 326.26V326.94H804.699C804.919 330.22 807.219 332.95 810.959 332.95C812.939 332.95 814.959 332.16 816.319 330.75L817.619 332.51C815.889 334.24 813.549 335.17 810.709 335.17C805.559 335.17 801.859 331.46 801.859 326.03C801.849 321.01 805.449 316.94 810.419 316.94ZM804.699 324.97H816.109C816.069 322.38 814.349 319.18 810.389 319.18C806.679 319.17 804.839 322.3 804.699 324.97Z" fill="white"/>
<path d="M834 332.78C832.56 334.36 830.58 335.19 828.24 335.19C825.29 335.19 822.16 333.21 822.16 329.43C822.16 325.54 825.29 323.71 828.24 323.71C830.62 323.71 832.6 324.47 834 326.09V322.96C834 320.62 832.13 319.29 829.61 319.29C827.52 319.29 825.83 320.05 824.28 321.7L823.02 319.83C824.89 317.89 827.12 316.95 829.97 316.95C833.64 316.95 836.7 318.61 836.7 322.82V334.77H834V332.78ZM834 327.81C832.96 326.37 831.12 325.65 829.21 325.65C826.69 325.65 824.93 327.23 824.93 329.47C824.93 331.67 826.69 333.25 829.21 333.25C831.12 333.25 832.95 332.53 834 331.09V327.81Z" fill="white"/>
<path d="M854.7 332.16C853.4 333.92 851.28 335.18 848.83 335.18C844.29 335.18 841.09 331.72 841.09 326.07C841.09 320.53 844.26 316.93 848.83 316.93C851.17 316.93 853.29 318.08 854.7 319.99V310.74H857.4V334.75H854.7V332.16ZM854.7 322.16C853.73 320.65 851.64 319.35 849.48 319.35C845.99 319.35 843.9 322.23 843.9 326.08C843.9 329.93 845.99 332.78 849.48 332.78C851.64 332.78 853.73 331.56 854.7 330.04V322.16Z" fill="white"/>
<path d="M870.361 316.94C875.621 316.94 878.711 321.04 878.711 326.26V326.94H864.641C864.861 330.22 867.161 332.95 870.901 332.95C872.881 332.95 874.891 332.16 876.261 330.75L877.551 332.51C875.821 334.24 873.481 335.17 870.641 335.17C865.491 335.17 861.781 331.46 861.781 326.03C861.791 321.01 865.391 316.94 870.361 316.94ZM864.641 324.97H876.051C876.011 322.38 874.291 319.18 870.331 319.18C866.621 319.17 864.781 322.3 864.641 324.97Z" fill="white"/>
<path d="M883.07 317.37H885.77V320.18C887.17 318.34 889.19 317.01 891.57 317.01V319.78C891.25 319.71 890.92 319.67 890.49 319.67C888.83 319.67 886.57 321.04 885.77 322.44V334.75H883.07V317.37Z" fill="white"/>
<path d="M903.23 326.05C903.23 321.01 906.54 316.94 911.83 316.94C917.12 316.94 920.43 321.01 920.43 326.05C920.43 331.09 917.12 335.19 911.83 335.19C906.54 335.19 903.23 331.08 903.23 326.05ZM917.59 326.05C917.59 322.52 915.54 319.35 911.83 319.35C908.12 319.35 906.03 322.52 906.03 326.05C906.03 329.61 908.12 332.78 911.83 332.78C915.54 332.78 917.59 329.61 917.59 326.05Z" fill="white"/>
<path d="M925.579 319.75H922.699V317.37H925.579V316.04C925.579 312.44 927.599 310.39 930.619 310.39C931.629 310.39 932.559 310.57 933.249 311L932.569 313.02C932.139 312.77 931.629 312.62 931.019 312.62C929.259 312.62 928.279 313.84 928.279 316.04V317.37H931.809V319.75H928.279V334.76H925.579V319.75ZM935.769 319.75H932.889V317.37H935.769V316.04C935.769 312.44 937.789 310.39 940.809 310.39C941.819 310.39 942.749 310.57 943.439 311L942.759 313.02C942.329 312.77 941.819 312.62 941.209 312.62C939.449 312.62 938.469 313.84 938.469 316.04V317.37H941.999V319.75H938.469V334.76H935.769V319.75Z" fill="white"/>
<path d="M955.028 331.12V319.75H952.148V317.37H955.028V312.62H957.729V317.37H961.258V319.75H957.729V330.55C957.729 331.85 958.309 332.78 959.489 332.78C960.249 332.78 960.968 332.46 961.318 332.06L962.109 334.08C961.429 334.73 960.449 335.2 958.869 335.2C956.329 335.19 955.028 333.71 955.028 331.12Z" fill="white"/>
<path d="M976.84 323.31C976.84 320.25 975.26 319.35 972.92 319.35C970.83 319.35 968.82 320.65 967.77 322.05V334.76H965.07V310.75H967.77V319.89C968.99 318.45 971.37 316.94 974 316.94C977.64 316.94 979.54 318.7 979.54 322.48V334.75H976.84V323.31V323.31Z" fill="white"/>
<path d="M992.501 316.94C997.761 316.94 1000.85 321.04 1000.85 326.26V326.94H986.781C986.991 330.22 989.301 332.95 993.041 332.95C995.021 332.95 997.041 332.16 998.401 330.75L999.701 332.51C997.971 334.24 995.631 335.17 992.791 335.17C987.641 335.17 983.941 331.46 983.941 326.03C983.941 321.01 987.541 316.94 992.501 316.94ZM986.781 324.97H998.191C998.151 322.38 996.431 319.18 992.471 319.18C988.761 319.17 986.921 322.3 986.781 324.97Z" fill="white"/>
<path d="M1015.04 331.12V319.75H1012.16V317.37H1015.04V312.62H1017.74V317.37H1021.27V319.75H1017.74V330.55C1017.74 331.85 1018.32 332.78 1019.5 332.78C1020.26 332.78 1020.98 332.46 1021.34 332.06L1022.13 334.08C1021.45 334.73 1020.47 335.2 1018.89 335.2C1016.34 335.19 1015.04 333.71 1015.04 331.12Z" fill="white"/>
<path d="M1024.08 326.05C1024.08 321.01 1027.39 316.94 1032.68 316.94C1037.97 316.94 1041.28 321.01 1041.28 326.05C1041.28 331.09 1037.97 335.19 1032.68 335.19C1027.39 335.19 1024.08 331.08 1024.08 326.05ZM1038.44 326.05C1038.44 322.52 1036.39 319.35 1032.68 319.35C1028.97 319.35 1026.88 322.52 1026.88 326.05C1026.88 329.61 1028.97 332.78 1032.68 332.78C1036.39 332.78 1038.44 329.61 1038.44 326.05Z" fill="white"/>
<path d="M1045.68 341.38V317.37H1048.38V319.96C1049.64 318.2 1051.8 316.94 1054.25 316.94C1058.82 316.94 1061.99 320.4 1061.99 326.05C1061.99 331.67 1058.82 335.19 1054.25 335.19C1051.87 335.19 1049.79 334.07 1048.38 332.13V341.38H1045.68V341.38ZM1053.56 319.35C1051.44 319.35 1049.31 320.61 1048.38 322.12V329.97C1049.32 331.48 1051.44 332.78 1053.56 332.78C1057.05 332.78 1059.14 329.9 1059.14 326.05C1059.14 322.2 1057.05 319.35 1053.56 319.35Z" fill="white"/>
<path d="M1075.52 330.51C1076.67 331.84 1078.87 332.99 1081.24 332.99C1083.9 332.99 1085.34 331.8 1085.34 330.11C1085.34 328.2 1083.22 327.59 1080.88 327.01C1077.93 326.33 1074.58 325.53 1074.58 321.93C1074.58 319.23 1076.92 316.93 1081.06 316.93C1084.01 316.93 1086.1 318.05 1087.5 319.45L1086.24 321.32C1085.2 320.06 1083.29 319.12 1081.06 319.12C1078.68 319.12 1077.21 320.2 1077.21 321.75C1077.21 323.44 1079.19 323.98 1081.46 324.52C1084.48 325.2 1087.97 326.07 1087.97 329.92C1087.97 332.84 1085.63 335.17 1081.13 335.17C1078.29 335.17 1075.87 334.31 1074.11 332.43L1075.52 330.51Z" fill="white"/>
<path d="M1092.37 341.38V317.37H1095.07V319.96C1096.33 318.2 1098.49 316.94 1100.94 316.94C1105.51 316.94 1108.68 320.4 1108.68 326.05C1108.68 331.67 1105.51 335.19 1100.94 335.19C1098.56 335.19 1096.48 334.07 1095.07 332.13V341.38H1092.37V341.38ZM1100.25 319.35C1098.13 319.35 1096 320.61 1095.07 322.12V329.97C1096.01 331.48 1098.13 332.78 1100.25 332.78C1103.74 332.78 1105.83 329.9 1105.83 326.05C1105.83 322.2 1103.74 319.35 1100.25 319.35Z" fill="white"/>
<path d="M1112.02 326.05C1112.02 321.01 1115.33 316.94 1120.62 316.94C1125.91 316.94 1129.22 321.01 1129.22 326.05C1129.22 331.09 1125.91 335.19 1120.62 335.19C1115.34 335.19 1112.02 331.08 1112.02 326.05ZM1126.39 326.05C1126.39 322.52 1124.34 319.35 1120.63 319.35C1116.92 319.35 1114.83 322.52 1114.83 326.05C1114.83 329.61 1116.92 332.78 1120.63 332.78C1124.34 332.78 1126.39 329.61 1126.39 326.05Z" fill="white"/>
<path d="M1134.16 331.12V319.75H1131.28V317.37H1134.16V312.62H1136.86V317.37H1140.39V319.75H1136.86V330.55C1136.86 331.85 1137.44 332.78 1138.62 332.78C1139.38 332.78 1140.1 332.46 1140.45 332.06L1141.24 334.08C1140.56 334.73 1139.58 335.2 1138 335.2C1135.46 335.19 1134.16 333.71 1134.16 331.12Z" fill="white"/>
<path d="M159.48 185L127.03 57.97L94.86 185H52.98L0 0H44.1L76.55 133.69L111.77 0H142.56L177.51 133.69L209.68 0H254.06L201.36 185H159.48Z" fill="white"/>
<path d="M272.65 185V0H312.03V185H272.65Z" fill="white"/>
<path d="M476.23 185L388.03 60.74V185H348.65V0H389.14L474.84 119.82V0H514.22V185H476.23Z" fill="white"/>
<path d="M615.329 104L612.479 96.1904H592.239L589.389 104H578.789L596.319 58.6904H608.409L625.869 104H615.329ZM602.359 67.0404L594.819 87.8304H609.829L602.359 67.0404Z" fill="white"/>
<path d="M686.869 104V71.3904L674.099 104H669.889L657.119 71.3904V104H647.469V58.6904H660.989L671.989 86.9504L682.989 58.6904H696.579V104H686.869Z" fill="white"/>
<path d="M737.278 104L734.428 96.1904H714.188L711.338 104H700.738L718.268 58.6904H730.358L747.818 104H737.278ZM724.308 67.0404L716.768 87.8304H731.778L724.308 67.0404Z" fill="white"/>
<path d="M771.659 57.9404C781.029 57.9404 786.939 62.4904 790.409 67.8604L782.389 72.2104C780.279 69.0204 776.409 66.5005 771.659 66.5005C763.439 66.5005 757.459 72.8204 757.459 81.3804C757.459 89.9404 763.439 96.2604 771.659 96.2604C775.799 96.2604 779.469 94.5604 781.439 92.8004V87.3004H769.349V79.0104H790.949V96.3304C786.329 101.49 779.879 104.89 771.659 104.89C758.409 104.89 747.539 95.6504 747.539 81.3904C747.539 67.0404 758.409 57.9404 771.659 57.9404Z" fill="white"/>
<path d="M829.879 104L808.279 73.5704V104H798.629V58.6904H808.549L829.539 88.0404V58.6904H839.189V104H829.879Z" fill="white"/>
<path d="M848.158 58.6807H857.938V85.5807C857.938 91.9007 861.399 96.2507 868.469 96.2507C875.399 96.2507 878.859 91.9007 878.859 85.5807V58.6807H888.638V85.8506C888.638 97.1306 882.188 104.801 868.458 104.801C854.598 104.801 848.148 97.0606 848.148 85.9106V58.6807H848.158Z" fill="white"/>
<path d="M937.009 104V71.3904L924.239 104H920.029L907.259 71.3904V104H897.609V58.6904H911.129L922.129 86.9504L933.129 58.6904H946.719V104H937.009Z" fill="white"/>
<path d="M605.078 139.461C618.798 139.461 628.787 149.241 628.787 162.901C628.787 176.561 618.798 186.341 605.078 186.341C591.428 186.341 581.438 176.561 581.438 162.901C581.438 149.241 591.418 139.461 605.078 139.461ZM605.078 148.021C596.718 148.021 591.357 154.411 591.357 162.901C591.357 171.321 596.728 177.781 605.078 177.781C613.428 177.781 618.867 171.331 618.867 162.901C618.867 154.411 613.428 148.021 605.078 148.021Z" fill="white"/>
<path d="M635.578 185.521V140.211H667.638V148.501H645.218V158.351H667.158V166.641H645.218V185.521H635.578Z" fill="white"/>
<path d="M689.59 162.901C689.59 148.971 700.12 139.461 713.37 139.461C723.7 139.461 729.47 144.891 732.66 150.531L724.37 154.611C722.47 150.941 718.39 148.021 713.37 148.021C705.49 148.021 699.51 154.341 699.51 162.901C699.51 171.461 705.49 177.781 713.37 177.781C718.4 177.781 722.47 174.931 724.37 171.191L732.66 175.201C729.4 180.841 723.69 186.341 713.37 186.341C700.12 186.341 689.59 176.821 689.59 162.901Z" fill="white"/>
<path d="M769.48 185.521V166.501H748.08V185.521H738.43V140.211H748.08V158.011H769.48V140.211H779.19V185.521H769.48Z" fill="white"/>
<path d="M819.817 185.521L816.967 177.711H796.727L793.877 185.521H783.277L800.807 140.211H812.897L830.357 185.521H819.817ZM806.847 148.561L799.307 169.351H814.317L806.847 148.561Z" fill="white"/>
<path d="M873.97 185.521V152.911L861.2 185.521H856.99L844.22 152.911V185.521H834.57V140.211H848.09L859.09 168.471L870.09 140.211H883.68V185.521H873.97V185.521Z" fill="white"/>
<path d="M892.648 185.521V140.211H913.849C923.699 140.211 929.068 146.871 929.068 154.821C929.068 162.701 923.639 169.291 913.849 169.291H902.298V185.531H892.648V185.521ZM912.558 148.501H902.298V161.001H912.558C916.358 161.001 919.219 158.551 919.219 154.751C919.219 151.011 916.358 148.501 912.558 148.501Z" fill="white"/>
<path d="M961.751 185.521L958.901 177.711H938.661L935.811 185.521H925.211L942.741 140.211H954.831L972.291 185.521H961.751ZM948.771 148.561L941.231 169.351H956.241L948.771 148.561Z" fill="white"/>
<path d="M996.12 139.461C1005.49 139.461 1011.4 144.011 1014.87 149.381L1006.85 153.731C1004.74 150.541 1000.87 148.021 996.12 148.021C987.9 148.021 981.92 154.341 981.92 162.901C981.92 171.461 987.9 177.781 996.12 177.781C1000.26 177.781 1003.93 176.081 1005.9 174.321V168.821H993.81V160.531H1015.41V177.851C1010.79 183.011 1004.34 186.411 996.12 186.411C982.87 186.411 972 177.171 972 162.911C972.01 148.561 982.88 139.461 996.12 139.461Z" fill="white"/>
<path d="M1054.34 185.521L1032.74 155.091V185.521H1023.09V140.211H1033.01L1054 169.561V140.211H1063.65V185.521H1054.34V185.521Z" fill="white"/>
<path d="M1072.62 185.521V140.211H1104.68V148.501H1082.26V158.351H1104.2V166.641H1082.26V177.171H1104.68V185.531H1072.62V185.521Z" fill="white"/>
</svg>
